<svg width="24" height="24" viewBox="0 0 24 24" fill="none" xmlns="http://www.w3.org/2000/svg">
<g clip-path="url(#clip0_19274_75879)">
<g clip-path="url(#clip1_19274_75879)">
<path d="M12 24C18.6274 24 24 18.6274 24 12C24 5.37258 18.6274 0 12 0C5.37258 0 0 5.37258 0 12C0 18.6274 5.37258 24 12 24Z" fill="#213147"/>
<g clip-path="url(#clip2_19274_75879)">
<path d="M5.4464 8.86405V15.136C5.4464 15.5392 5.6576 15.904 6.0096 16.1088L11.4432 19.2448C11.7888 19.4432 12.2176 19.4432 12.5632 19.2448L17.9968 16.1088C18.3424 15.9104 18.56 15.5392 18.56 15.136V8.86405C18.56 8.46085 18.3488 8.09605 17.9968 7.89125L12.5632 4.75525C12.2176 4.55685 11.7888 4.55685 11.4432 4.75525L6.0096 7.89125C5.664 8.08965 5.4528 8.46085 5.4528 8.86405H5.4464Z" fill="#213147"/>
<path d="M13.184 13.2163L12.4096 15.3411C12.3904 15.3987 12.3904 15.4627 12.4096 15.5267L13.7408 19.1811L15.2832 18.2915L13.4336 13.2163C13.3888 13.1011 13.2288 13.1011 13.184 13.2163Z" fill="#12AAFF"/>
<path d="M14.7392 9.64499C14.6944 9.52979 14.5344 9.52979 14.4896 9.64499L13.7152 11.7698C13.696 11.8274 13.696 11.8914 13.7152 11.9554L15.8976 17.9394L17.44 17.0498L14.7392 9.65139V9.64499Z" fill="#12AAFF"/>
<path d="M12 4.992C12.0384 4.992 12.0768 5.0048 12.1088 5.024L17.984 8.416C18.0544 8.4544 18.0928 8.5312 18.0928 8.608V15.392C18.0928 15.4688 18.048 15.5456 17.984 15.584L12.1088 18.976C12.0768 18.9952 12.0384 19.008 12 19.008C11.9616 19.008 11.9232 18.9952 11.8912 18.976L6.016 15.584C5.9456 15.5456 5.9072 15.4688 5.9072 15.392V8.6016C5.9072 8.5248 5.952 8.448 6.016 8.4096L11.8912 5.0176C11.9232 4.9984 11.9616 4.9856 12 4.9856V4.992ZM12 4C11.7888 4 11.584 4.0512 11.392 4.16L5.5168 7.552C5.1392 7.7696 4.9088 8.1664 4.9088 8.6016V15.3856C4.9088 15.8208 5.1392 16.2176 5.5168 16.4352L11.392 19.8272C11.5776 19.936 11.7888 19.9872 12 19.9872C12.2112 19.9872 12.416 19.936 12.608 19.8272L18.4832 16.4352C18.8608 16.2176 19.0912 15.8208 19.0912 15.3856V8.6016C19.0912 8.1664 18.8608 7.7696 18.4832 7.552L12.6016 4.16C12.416 4.0512 12.2048 4 11.9936 4H12Z" fill="#9DCCED"/>
<path d="M8.1088 17.9457L8.6528 16.4609L9.7408 17.3633L8.7232 18.2977L8.1088 17.9457Z" fill="#213147"/>
<path d="M11.5008 8.12163H10.0096C9.90079 8.12163 9.79839 8.19203 9.75999 8.29443L6.56639 17.0496L8.10879 17.9392L11.6288 8.29443C11.6608 8.20483 11.5968 8.11523 11.5072 8.11523L11.5008 8.12163Z" fill="white"/>
<path d="M14.112 8.12163H12.6208C12.512 8.12163 12.4096 8.19203 12.3712 8.29443L8.72319 18.2912L10.2656 19.1808L14.2336 8.29443C14.2656 8.20483 14.2016 8.11523 14.112 8.11523V8.12163Z" fill="white"/>
</g>
</g>
</g>
<defs>
<clipPath id="clip0_19274_75879">
<rect width="24" height="24" fill="white"/>
</clipPath>
<clipPath id="clip1_19274_75879">
<rect width="24" height="24" fill="white"/>
</clipPath>
<clipPath id="clip2_19274_75879">
<rect width="16" height="16" fill="white" transform="translate(4 4)"/>
</clipPath>
</defs>
</svg>
