<svg width="24" height="24" viewBox="0 0 24 24" xmlns="http://www.w3.org/2000/svg">
<circle class="circle" cx="12" cy="12" r="12"/>
<path d="M10.2724 16.8399H13.4634V20H10.2724V16.8399ZM7 10.0684C7.01355 9.32968 7.1355 8.65253 7.36585 8.03694C7.60976 7.42134 7.94173 6.88782 8.36179 6.43639C8.79539 5.98495 9.3103 5.63611 9.9065 5.38988C10.5163 5.12996 11.1938 5 11.939 5C12.9011 5 13.7005 5.1368 14.3374 5.4104C14.9878 5.67031 15.5095 5.99863 15.9024 6.39535C16.2954 6.79207 16.5732 7.22298 16.7358 7.6881C16.9119 8.13953 17 8.56361 17 8.96033C17 9.61696 16.9119 10.1573 16.7358 10.5814C16.5732 11.0055 16.3631 11.368 16.1057 11.6689C15.8618 11.9699 15.584 12.2298 15.2724 12.4487C14.9743 12.6539 14.6897 12.8659 14.4187 13.0848C14.1477 13.29 13.9038 13.5294 13.687 13.803C13.4837 14.0766 13.355 14.4186 13.3008 14.829V15.6088H10.5569V14.6854C10.5976 14.0971 10.706 13.6047 10.8821 13.2079C11.0718 12.8112 11.2886 12.4761 11.5325 12.2025C11.7764 11.9152 12.0339 11.6689 12.3049 11.4637C12.5759 11.2585 12.8266 11.0534 13.0569 10.8482C13.2873 10.643 13.4702 10.4172 13.6057 10.171C13.7547 9.92476 13.8225 9.61696 13.8089 9.2476C13.8089 8.61833 13.6531 8.15321 13.3415 7.85226C13.0434 7.5513 12.6233 7.40082 12.0813 7.40082C11.7154 7.40082 11.397 7.47606 11.126 7.62654C10.8686 7.76334 10.6518 7.95486 10.4756 8.20109C10.313 8.43365 10.1911 8.71409 10.1098 9.04241C10.0285 9.35704 9.9878 9.69904 9.9878 10.0684H7Z" fill="white"/>
</svg>
