<svg width="24" height="24" viewBox="0 0 24 24" fill="none" xmlns="http://www.w3.org/2000/svg">
<g clip-path="url(#clip0_7739_11630)">
<path d="M12 24C18.65 24 24 18.65 24 12C24 5.34996 18.65 0 12 0C5.34996 0 0 5.34996 0 12C0 18.65 5.34996 24 12 24Z" fill="#2775CA"/>
<path d="M15.2997 13.9001C15.2997 12.1502 14.2497 11.5502 12.1497 11.3002C10.6497 11.1001 10.3497 10.7002 10.3497 10.0001C10.3497 9.30003 10.8497 8.85014 11.8497 8.85014C12.7497 8.85014 13.2497 9.15015 13.4997 9.90015C13.5497 10.0501 13.6997 10.1501 13.8497 10.1501H14.6496C14.8497 10.1501 14.9997 10.0001 14.9997 9.80019V9.75015C14.7996 8.6501 13.8996 7.80014 12.7497 7.70018V6.50018C12.7497 6.30014 12.5997 6.15014 12.3497 6.1001H11.5997C11.3997 6.1001 11.2497 6.2501 11.1997 6.50018V7.65014C9.69967 7.85018 8.74976 8.85014 8.74976 10.1002C8.74976 11.7502 9.74971 12.4001 11.8497 12.6502C13.2497 12.9002 13.6997 13.2002 13.6997 14.0002C13.6997 14.8002 12.9996 15.3502 12.0497 15.3502C10.7497 15.3502 10.2997 14.8001 10.1497 14.0501C10.0997 13.8502 9.94975 13.7501 9.79975 13.7501H8.94968C8.74976 13.7501 8.59976 13.9001 8.59976 14.1002V14.1502C8.79968 15.4001 9.59971 16.3001 11.2497 16.5502V17.7502C11.2497 17.9501 11.3997 18.1001 11.6497 18.1502H12.3996C12.5997 18.1502 12.7497 18.0002 12.7997 17.7502V16.5502C14.2997 16.3001 15.2997 15.2501 15.2997 13.9001Z" fill="white"/>
<path d="M9.45007 19.1504C5.55007 17.7505 3.55003 13.4005 5.00011 9.55041C5.75011 7.45041 7.40011 5.85045 9.45007 5.10045C9.65011 5.00049 9.75007 4.85049 9.75007 4.60041V3.90045C9.75007 3.70041 9.65011 3.55041 9.45007 3.50049C9.40003 3.50049 9.30008 3.50049 9.25003 3.55041C4.50007 5.05041 1.90003 10.1005 3.40003 14.8504C4.30003 17.6504 6.45007 19.8004 9.25003 20.7004C9.45007 20.8004 9.65012 20.7004 9.70003 20.5004C9.75007 20.4505 9.75007 20.4004 9.75007 20.3005V19.6004C9.75007 19.4504 9.60007 19.2505 9.45007 19.1504ZM14.7501 3.55041C14.5501 3.45045 14.35 3.55041 14.3001 3.75045C14.2501 3.80049 14.2501 3.85041 14.2501 3.95049V4.65045C14.2501 4.85049 14.4001 5.05041 14.5501 5.15049C18.4501 6.55041 20.4501 10.9004 19 14.7505C18.25 16.8505 16.6 18.4504 14.5501 19.2004C14.35 19.3004 14.2501 19.4504 14.2501 19.7005V20.4004C14.2501 20.6005 14.35 20.7505 14.5501 20.8004C14.6001 20.8004 14.7001 20.8004 14.7501 20.7505C19.5001 19.2505 22.1001 14.2004 20.6001 9.45045C19.7001 6.60045 17.5 4.45041 14.7501 3.55041Z" fill="white"/>
</g>
<defs>
<clipPath id="clip0_7739_11630">
<rect width="24" height="24" fill="white"/>
</clipPath>
</defs>
</svg>
