<svg width="24" height="24" viewBox="0 0 24 24" fill="none" xmlns="http://www.w3.org/2000/svg">
<g clip-path="url(#clip0_21148_12345)">
<circle cx="12" cy="12" r="12" fill="white"/>
<path fill-rule="evenodd" clip-rule="evenodd" d="M10.6281 3.77281C12.0861 3.65855 13.5455 3.97533 14.825 4.68361C15.7241 5.3344 16.5641 6.06282 17.3353 6.86046C16.4131 6.13204 15.3282 5.62921 14.1675 5.39812C12.7212 5.11063 11.222 5.25822 9.85955 5.82258C8.4971 6.38693 7.33258 7.34241 6.51326 8.56854C5.69395 9.79466 5.25662 11.2365 5.25659 12.7109C5.25663 14.593 5.96808 16.4014 7.24199 17.7773C6.66433 17.4052 6.03277 16.7057 5.39679 15.7759C5.0948 15.3335 4.80965 14.8658 4.55004 14.4C4.37833 14.0912 4.23311 13.8111 4.16097 13.6598C4.10557 13.5547 4.0658 13.4419 4.04292 13.3254L4.03952 13.3071C4.02254 13.2181 4.01507 13.1837 3.99877 13.1222C3.62431 11.7086 3.67355 10.2158 4.14037 8.83002C4.60718 7.44386 5.471 6.22579 6.62443 5.32671C7.77789 4.42762 9.1701 3.88744 10.6281 3.77281Z" fill="#EC1C79"/>
<path fill-rule="evenodd" clip-rule="evenodd" d="M5.28018 12.1641C5.37378 10.8804 5.79767 9.63894 6.51625 8.5637C7.33557 7.33758 8.50008 6.3821 9.86253 5.81774C11.225 5.25339 12.7242 5.1058 14.1705 5.39329C15.6169 5.68114 16.9455 6.39125 17.9882 7.4339C19.031 8.47691 19.7411 9.80521 20.0288 11.2518C20.0653 11.4353 20.094 11.6202 20.1165 11.8052C20.1973 12.4622 20.19 13.1254 20.0963 13.7769C20.0082 14.3889 19.8439 14.991 19.6047 15.5685C19.0404 16.9309 18.0847 18.0955 16.8586 18.9147C15.7979 19.6234 14.5759 20.0463 13.3108 20.1478C13.3085 20.1449 13.3061 20.1423 13.3037 20.1394C13.1086 20.1548 12.9125 20.1624 12.7158 20.1624C10.7383 20.1624 8.84181 19.3769 7.4435 17.9786C7.35523 17.8904 7.26939 17.8003 7.18604 17.708C7.18355 17.708 7.18106 17.7084 7.17857 17.7084C6.25331 16.6822 5.63564 15.4242 5.38538 14.078C5.30238 13.6315 5.25979 13.1756 5.25979 12.7152C5.25979 12.7123 5.25958 12.709 5.25958 12.7061C5.25958 12.705 5.2598 12.7035 5.2598 12.7024C5.26011 12.5222 5.26694 12.3428 5.28018 12.1641ZM11.1146 4.6634C12.4207 4.40375 13.766 4.46637 15.0352 4.83992L14.9323 4.76375L14.8283 4.68794C13.5488 3.98002 12.0894 3.66324 10.6315 3.7775C9.17355 3.89213 7.78137 4.43231 6.62795 5.3314C5.47453 6.23048 4.61074 7.44855 4.14392 8.83435C4.05325 9.10352 3.97834 9.37673 3.91922 9.65249L4.91712 10.1517C5.31726 8.93432 5.99849 7.82283 6.91115 6.9102C8.05927 5.76208 9.52207 4.98019 11.1146 4.6634ZM4.69167 10.9819L3.78529 10.5289C3.75105 10.8988 3.74448 11.2708 3.76567 11.6418L4.53799 11.9982C4.56393 11.7023 4.60602 11.4067 4.66438 11.1134L4.69167 10.9819ZM4.0022 13.1265C3.95839 12.961 3.92038 12.7947 3.88816 12.6273L4.50904 12.9141C4.52433 13.5451 4.61239 14.1732 4.77197 14.7855L4.65613 14.5852L4.55375 14.4039C4.38204 14.0952 4.23682 13.815 4.16468 13.6638C4.10924 13.5587 4.06938 13.4462 4.04636 13.3298L4.04296 13.3115C4.02598 13.2225 4.01851 13.188 4.0022 13.1265ZM15.2435 4.05913C16.0569 4.62568 16.9132 5.36545 17.8123 6.27882C18.4795 6.80729 19.0642 7.43866 19.5421 8.15426C20.4442 9.50417 20.9257 11.0914 20.9257 12.7152C20.9257 13.793 20.7134 14.8606 20.3008 15.8567C19.8882 16.8529 19.2835 17.7578 18.5212 18.5203C17.7589 19.2824 16.8539 19.887 15.8578 20.2998C14.8618 20.7121 13.7943 20.9246 12.7162 20.9246C12.5852 20.9246 12.4545 20.9213 12.3241 20.915C11.6924 20.9773 10.5605 21 7.92638 21C5.41316 21 3.37705 20.258 3.37705 19.3432C3.37705 18.6642 4.49872 18.0804 6.104 17.8245C5.66258 17.3989 5.2208 16.8518 4.77899 16.2054C4.46287 15.7428 4.1659 15.2557 3.89597 14.7712C3.71624 14.4486 3.56409 14.1541 3.48502 13.9886C3.40257 13.8267 3.34312 13.6542 3.30842 13.4759L3.30434 13.455C3.29664 13.414 3.29156 13.3887 3.28667 13.3675L3.27473 13.3191C2.86123 11.7609 2.9155 10.1154 3.43076 8.58788C3.94603 7.06035 4.89951 5.71813 6.17235 4.72859C7.44519 3.73905 8.98109 3.14613 10.5886 3.02381C12.1961 2.90112 13.8041 3.25453 15.2122 4.03972L15.2435 4.05913Z" fill="black"/>
<path d="M12.7063 20.1625C14.181 20.1625 15.6226 19.7252 16.8488 18.9059C18.0749 18.0866 19.0306 16.9221 19.595 15.5596C20.1593 14.1972 20.307 12.698 20.0193 11.2516C19.7316 9.80528 19.0215 8.47671 17.9787 7.43393C16.936 6.39115 15.6074 5.68101 14.161 5.39329C12.7147 5.10557 11.2155 5.25321 9.85304 5.81754C8.49059 6.38186 7.32608 7.33752 6.50676 8.56368C5.68744 9.78983 5.25012 11.2314 5.25009 12.7061C5.25013 14.6836 6.03571 16.5801 7.43401 17.9784C8.83232 19.3767 10.7288 20.1624 12.7063 20.1625Z" fill="white"/>
<path fill-rule="evenodd" clip-rule="evenodd" d="M7.12862 14.2334L6.14167 11.2599H7.00649L7.52109 12.9681L8.09016 11.2515H8.79427L9.36362 12.9681L9.87821 11.2599H10.7262L9.73924 14.2334H9.02657L8.43196 12.5337L7.84129 14.2334H7.12862ZM11.051 14.2124V11.2599H13.4257V11.956H11.8611V12.4031H13.2781V13.0488H11.8611V13.5168H13.4466V14.2128L11.051 14.2124ZM14.5858 14.2124V11.9769H13.7002V11.2599H16.2894V11.9769H15.4038V14.2123L14.5858 14.2124ZM16.6481 14.2124V11.2599H17.4665V12.3648H18.5166V11.2599H19.3352V14.2123H18.5166V13.0905H17.4665V14.2123L16.6481 14.2124Z" fill="black"/>
</g>
<defs>
<clipPath id="clip0_21148_12345">
<rect width="24" height="24" fill="white"/>
</clipPath>
</defs>
</svg>
