<svg width="48" height="48" viewBox="0 0 48 48" fill="none" xmlns="http://www.w3.org/2000/svg">
<path fill-rule="evenodd" clip-rule="evenodd" d="M44.5226 12C44.4985 28.0558 37.6457 40.0558 23.9644 48C9.98814 39.5468 3 27.5468 3 12L23.7302 0L44.5226 12ZM23.7326 3.83596L6.35603 13.8947C6.87208 26.7089 12.6848 36.6841 23.9953 44.0959C34.9907 37.1034 40.6584 27.1424 41.1667 13.8978L23.7326 3.83596ZM27.9723 27.1546L12.8625 27.1655L12.8616 25.9791L27.9715 25.9683L27.9697 23.4473L34.1419 26.557L27.9741 29.6756L27.9723 27.1546ZM34.1409 16.0962L19.031 16.1071L19.0292 13.5861L12.8614 16.7047L19.0336 19.8145L19.0318 17.2934L34.1417 17.2826L34.1409 16.0962Z" fill="#9013FE"/>
</svg>