<svg viewBox="0 0 16 16" fill="none" xmlns="http://www.w3.org/2000/svg">
<g clip-path="url(#clip0_19526_8485)">
<path fill-rule="evenodd" clip-rule="evenodd" d="M3.87713 7.35766C3.84287 7.44018 3.82524 7.52865 3.82525 7.61801H3.82552V11.8581C3.82538 11.997 3.7742 12.1309 3.68171 12.2345C3.58922 12.338 3.46189 12.4039 3.32397 12.4196C3.0071 12.4568 2.74056 12.4835 2.52646 12.5023C2.33483 12.5195 2.1423 12.4816 1.97147 12.393C1.80064 12.3045 1.65862 12.169 1.56208 12.0026C0.862044 10.7854 0.495683 9.40496 0.500038 8.00075C0.499603 3.56313 4.16526 -0.0588797 8.60071 0.000725276C10.2456 0.0233998 11.8433 0.553761 13.1754 1.51929C14.5075 2.48482 15.5089 3.83839 16.0428 5.39492C16.104 5.57288 16.1201 5.76322 16.0899 5.94895C16.0596 6.13469 15.9838 6.31004 15.8694 6.45936C15.0803 7.48806 14.0859 8.34362 13.1048 9.0549V4.2263C13.1048 4.04615 13.0333 3.87338 12.9059 3.746C12.7786 3.61862 12.6059 3.54706 12.4258 3.54706H11.2941C11.2049 3.54706 11.1167 3.56464 11.0343 3.59878C10.9519 3.63292 10.8771 3.68295 10.814 3.74602C10.751 3.8091 10.701 3.88398 10.6669 3.96638C10.6328 4.04879 10.6152 4.13711 10.6152 4.2263V10.0902C10.6151 10.2015 10.5823 10.3104 10.5207 10.4032C10.4592 10.496 10.3717 10.5686 10.2692 10.612C9.99313 10.7285 9.70992 10.8433 9.70992 10.8433V5.92471C9.70992 5.74455 9.63839 5.57177 9.51105 5.44436C9.38372 5.31695 9.21102 5.24535 9.03092 5.24531H7.89922C7.71912 5.24533 7.54641 5.31693 7.41908 5.44434C7.29174 5.57175 7.22022 5.74455 7.22023 5.92471V11.2241C7.2202 11.3517 7.1771 11.4755 7.09793 11.5754C7.01875 11.6754 6.90814 11.7457 6.78403 11.7749C6.60528 11.8169 6.44211 11.8571 6.31488 11.8948V7.62253C6.31488 7.44238 6.24335 7.26961 6.11601 7.14223C5.98867 7.01485 5.81597 6.94328 5.63589 6.94328L4.50648 6.93958C4.41716 6.93916 4.32864 6.9564 4.246 6.99031C4.16336 7.02422 4.08823 7.07413 4.02493 7.13717C3.96163 7.20021 3.9114 7.27514 3.87713 7.35766ZM3.80082 14.4699C3.80076 14.4698 3.8007 14.4698 3.80064 14.4697L3.80058 14.4699C3.80066 14.4699 3.80074 14.4699 3.80082 14.4699ZM3.80082 14.4699C4.99363 15.3379 6.40322 15.8589 7.87366 15.9753C9.34417 16.0917 10.8182 15.7989 12.1327 15.1292C13.4472 14.4596 14.5508 13.4392 15.3216 12.1811C16.0924 10.9229 16.5002 9.47595 16.5 8.00031C16.5 7.8161 16.4914 7.63396 16.4791 7.45281C13.5577 11.8114 8.16352 13.8494 3.80082 14.4699Z" fill="#009AFF"/>
</g>
<defs>
<clipPath id="clip0_19526_8485">
<rect width="16" height="16" fill="white" transform="translate(0.5)"/>
</clipPath>
</defs>
</svg>
