<svg width="16" height="16" viewBox="0 0 16 16" fill="none" xmlns="http://www.w3.org/2000/svg">
<g clip-path="url(#clip0_22504_84486)">
<path fill-rule="evenodd" clip-rule="evenodd" d="M3 1H13C14.1046 1 15 1.89543 15 3V13C15 14.1046 14.1046 15 13 15H3C1.89543 15 1 14.1046 1 13V3C1 1.89543 1.89543 1 3 1ZM0 3C0 1.34315 1.34315 0 3 0H13C14.6569 0 16 1.34315 16 3V13C16 14.6569 14.6569 16 13 16H3C1.34315 16 0 14.6569 0 13V3ZM3.89939 4.03051L3.89473 4.88306C3.8908 5.24981 4.19072 5.54195 4.55759 5.53034L9.0772 5.39621L3.52743 10.9449C3.27061 11.2016 3.26836 11.6125 3.5224 11.8665L4.13361 12.4776C4.38764 12.7316 4.79864 12.7294 5.05546 12.4726L10.6052 6.92393L10.4711 11.4426C10.4614 11.8075 10.7536 12.1074 11.1185 12.1054L11.9712 12.1007C12.3303 12.1007 12.6239 11.8072 12.6258 11.4462L12.6666 3.98069C12.6705 3.62162 12.3802 3.33135 12.0191 3.33332L4.554 3.37603C4.19488 3.37607 3.90136 3.66952 3.89939 4.03051Z" fill="#009AFF"/>
</g>
<defs>
<clipPath id="clip0_22504_84486">
<rect width="16" height="16" fill="white"/>
</clipPath>
</defs>
</svg>
