<svg width="16" height="16" viewBox="0 0 16 16" fill="none" xmlns="http://www.w3.org/2000/svg">
<path fill-rule="evenodd" clip-rule="evenodd" d="M12.332 4.47132C13.1913 5.06456 13.6652 6.12174 13.7537 7.64287C13.1218 7.69533 12.7268 7.87925 12.5689 8.19463L8.37842 5.35594C7.49257 5.00779 6.8115 5.04038 6.33523 5.45373C5.62081 6.07375 5.09149 6.21217 4.86958 6.06209C4.64766 5.91201 4.46743 5.47386 4.86958 5.20413C5.13767 5.02432 5.59653 4.60444 6.24616 3.94451C7.1145 3.87734 7.72917 3.84375 8.09016 3.84375C8.45114 3.84375 9.35168 4.1469 10.7918 4.75319C11.0601 4.9246 11.3393 4.98374 11.6295 4.93063C11.9198 4.87752 12.1539 4.72442 12.332 4.47132Z" />
<path fill-rule="evenodd" clip-rule="evenodd" d="M12.6309 3.93853L14.0005 3C15.2121 4.05681 15.8527 5.10557 15.9224 6.14628L15.9993 7.41681L14.3616 8.19298C14.2799 6.65052 14.0712 5.62356 13.7356 5.1121C13.3999 4.60063 13.0317 4.20944 12.6309 3.93853Z" />
<path fill-rule="evenodd" clip-rule="evenodd" d="M1.92807 3C0.804648 4.13068 0.191579 5.24877 0.0888655 6.35427L0 7.48164L1.59221 8.33333C1.68743 6.4803 2.12448 5.17111 2.90336 4.40575L3.36842 3.94816L1.92807 3Z" />
<path d="M4.30642 10.0488C4.52269 10.159 4.84301 9.96379 5.02186 9.61277C5.20072 9.26175 5.17038 8.88786 4.9541 8.77766C4.73783 8.66746 4.41751 8.86268 4.23866 9.2137C4.0598 9.56472 4.09014 9.93861 4.30642 10.0488Z" />
<path d="M5.18 10.8966C5.42331 11.0206 5.81573 10.738 6.05649 10.2655C6.29726 9.79294 6.29519 9.30938 6.05188 9.18541C5.80857 9.06144 5.41615 9.344 5.17539 9.81652C4.93462 10.289 4.93669 10.7726 5.18 10.8966Z" />
<path d="M6.22086 11.4695C6.43713 11.5797 6.82994 11.2422 7.09822 10.7157C7.36651 10.1892 7.40866 9.67301 7.19239 9.56281C6.97611 9.45261 6.5833 9.79012 6.31502 10.3166C6.04674 10.8432 6.00458 11.3593 6.22086 11.4695Z" />
<path d="M7.25734 11.9208C7.41955 12.0035 7.69604 11.7859 7.87489 11.4349C8.05374 11.0839 8.06724 10.7323 7.90503 10.6496C7.74282 10.567 7.46634 10.7846 7.28749 11.1356C7.10863 11.4866 7.09514 11.8382 7.25734 11.9208Z" />
<path fill-rule="evenodd" clip-rule="evenodd" d="M2.10547 7.83585C2.26197 6.53269 2.62836 5.54316 3.20462 4.86727L3.76541 4.26172C4.06606 4.41384 4.30282 4.4899 4.47571 4.4899C4.6486 4.4899 4.85311 4.56548 5.08923 4.71663L4.47571 5.25461C4.2866 5.70565 4.34844 6.00673 4.66123 6.15785C5.13042 6.38452 5.59252 6.36995 6.00439 6.04879C6.41627 5.72763 6.81432 5.26179 7.66238 5.38429C8.22775 5.46595 9.53427 6.28314 11.5819 7.83585C12.723 8.49845 13.1302 9.02665 12.8033 9.42047C12.64 9.68438 12.3633 9.72223 11.9732 9.53401C11.9732 9.53401 11.431 9.20186 11.4388 9.24417C11.4456 9.28109 11.9637 9.58562 11.9732 9.62371C12.1089 10.1693 11.9733 10.5446 11.6687 10.5957C11.3184 10.6544 11.0473 10.6339 10.8555 10.5343C10.8555 10.5343 10.5252 10.2767 10.5265 10.2968C10.5277 10.3144 10.8625 10.6306 10.8631 10.6477C10.8865 11.2202 10.6541 11.4785 10.166 11.4224L9.79717 11.3561C9.80047 11.4028 9.80209 11.4474 9.80204 11.4898C9.80153 11.8825 9.65731 12.0916 9.36938 12.1169C8.89084 12.159 8.24897 11.8997 7.9216 11.5283C8.23744 11.0955 8.2732 10.7642 8.02887 10.5343C7.78454 10.3045 7.50926 10.408 7.20303 10.8447C7.61606 10.0904 7.66145 9.61563 7.33921 9.42047C7.01697 9.22531 6.67206 9.41087 6.30448 9.97717C6.50367 9.49053 6.46588 9.16233 6.19111 8.99256C5.91635 8.82279 5.61502 8.9389 5.28711 9.34087C5.43307 8.89351 5.35195 8.61305 5.04374 8.4995C4.73553 8.38595 4.39858 8.58901 4.03289 9.10868C3.1921 8.32741 2.64797 7.91996 2.4005 7.88632L2.10547 7.83585Z" />
</svg>
