<svg width="163" height="48" viewBox="0 0 163 48" fill="none" xmlns="http://www.w3.org/2000/svg">
<path d="M65.0663 18.2107H55.1592V22.4073H64.1311V25.2893H55.1592V29.8146H65.0663V32.6966H52V15.3287H65.0663V18.2107ZM74.5184 32.9747C71.5362 32.9747 69.0089 31.9635 67.0881 30.1685L68.9078 27.9185C70.5 29.3596 72.3449 30.2697 74.6195 30.2697C76.7678 30.2697 77.8798 29.2079 77.8798 27.9691C77.8798 26.5281 76.6414 26.0478 73.8613 25.3905C70.2725 24.5562 67.7705 23.5197 67.7705 20.2584C67.7705 17.2247 70.3484 15 74.013 15C76.7678 15 78.8402 15.9354 80.584 17.427L78.8654 19.7528C77.349 18.4382 75.6052 17.7051 73.8866 17.7051C72.1428 17.7051 70.9549 18.7669 70.9549 19.9803C70.9549 21.3961 72.2439 21.9017 74.9986 22.5337C78.6127 23.3427 81.0389 24.5056 81.0389 27.6657C81.0389 30.7753 78.6633 32.9747 74.5184 32.9747ZM92.3866 33C87.4331 33 83.263 28.8792 83.263 24C83.263 19.1208 87.4331 15.0253 92.3866 15.0253C94.9392 15.0253 97.2643 16.1124 98.9324 17.8315L96.6831 19.9298C95.6216 18.691 94.0546 17.9073 92.3866 17.9073C89.1769 17.9073 86.4727 20.6882 86.4727 24C86.4727 27.3371 89.1769 30.118 92.3866 30.118C94.0799 30.118 95.6216 29.3343 96.7083 28.0955L98.9324 30.1685C97.2643 31.9129 94.9392 33 92.3866 33ZM115.562 32.6966H111.973L107.879 26.8567H104.518V32.6966H101.359V15.3287H108.915C112.63 15.3287 115.411 17.7051 115.411 21.0927C115.411 23.7219 113.717 25.7444 111.215 26.5281L115.562 32.6966ZM104.518 18.236V23.9494H108.561C110.71 23.9494 112.201 22.8624 112.201 21.0927C112.201 19.323 110.71 18.236 108.561 18.236H104.518ZM126.733 33C121.779 33 117.609 28.8792 117.609 24C117.609 19.1208 121.779 15.0253 126.733 15.0253C131.661 15.0253 135.831 19.1208 135.831 24C135.831 28.8792 131.661 33 126.733 33ZM126.733 30.118C129.917 30.118 132.596 27.3371 132.596 24C132.596 20.6882 129.917 17.9073 126.733 17.9073C123.523 17.9073 120.819 20.6882 120.819 24C120.819 27.3371 123.523 30.118 126.733 30.118ZM142.503 32.6966L136.994 15.3287H140.456L144.171 27.7669L148.291 15.3287H151.728L155.822 27.7669L159.538 15.3287H163L157.516 32.6966H154.357L150.01 19.8034L145.637 32.6966H142.503Z" fill="white"/>
<path fill-rule="evenodd" clip-rule="evenodd" d="M0.000488281 12.2594L20.2154 0.601562L40.3705 12.2598V12.8368C40.3705 27.5633 33.7113 38.9581 20.5156 46.9331L20.0086 47.2395L19.4962 46.9422C6.54071 39.4252 0.0241578 28.013 0.00135798 12.8383L0.000488281 12.2594ZM39.3702 12.8368C39.3702 27.1918 32.9129 38.2718 19.9982 46.077C7.3561 38.7418 1.02392 27.6617 1.00164 12.8368L20.2147 1.7567L39.3702 12.8368Z" fill="white"/>
<path fill-rule="evenodd" clip-rule="evenodd" d="M20.0146 43.1102C31.1889 36.2667 36.7892 26.6477 36.8742 14.211L20.2133 4.57735L3.50195 14.2112C3.60201 27.0677 9.09744 36.6796 20.0146 43.1102ZM3.00061 13.9231C3.02057 27.2 8.69359 37.1231 20.0197 43.6923C31.59 36.7022 37.3752 26.7791 37.3752 13.9231L20.2136 4L3.00061 13.9231Z" fill="white"/>
<path fill-rule="evenodd" clip-rule="evenodd" d="M15.1953 13L26.6599 13.5063L31.3014 23.6954L24.7531 33.0076L13.2261 32.2783L8.50049 21.2384L15.1953 13ZM22.6088 30.3897L16.5363 31.9549L23.6775 32.4058L22.6088 30.3897ZM29.1346 25.9574L23.8189 29.8624L24.8752 31.898L29.1346 25.9574ZM13.7203 24.2151L13.8945 31.0856L20.9206 29.2853L13.7203 24.2151ZM9.25549 22.0264L12.5688 29.724L12.4309 22.6894L9.25549 22.0264ZM25.1868 18.8197L23.8917 28.2614L30.0934 23.7297L25.1868 18.8197ZM23.5597 18.9497L15.2695 22.5216L22.3571 27.9256L23.5597 18.9497ZM14.188 14.9889L9.46127 20.8747L12.6215 21.5348L14.188 14.9889ZM26.6203 15.0225L25.5878 17.1126L29.4308 20.9649L26.6203 15.0225ZM15.9747 14.3467L14.583 20.2615L22.5999 17.1599L15.9747 14.3467ZM18.5856 13.7522L24.1521 16.1532L25.3339 14.0223L18.5856 13.7522Z" fill="white"/>
</svg>
