<svg width="152" height="48" viewBox="0 0 152 48" fill="none" xmlns="http://www.w3.org/2000/svg">
<path fill-rule="evenodd" clip-rule="evenodd" d="M20.2154 1L0.000488281 12.6579L0.00135798 13.2367C0.0241578 28.4114 6.54071 39.8236 19.4962 47.3406L20.0086 47.6379L20.5156 47.3315C33.7113 39.3565 40.3705 27.9617 40.3705 13.2352V12.6582L20.2154 1ZM19.9982 46.4754C32.9129 38.6703 39.3702 27.5902 39.3702 13.2352L20.2147 2.15513L1.00164 13.2352C1.02392 28.0602 7.3561 39.1402 19.9982 46.4754ZM36.8742 14.6109C36.7892 27.0476 31.1889 36.6666 20.0146 43.5101C9.09744 37.0795 3.60201 27.4676 3.50195 14.6111L20.2133 4.97725L36.8742 14.6109ZM20.0197 44.0922C8.69359 37.523 3.02057 27.5999 3.00061 14.323L20.2136 4.3999L37.3752 14.323C37.3752 27.179 31.59 37.1021 20.0197 44.0922ZM15.1953 13.3999L26.6599 13.9062L31.3014 24.0953L24.7531 33.4075L13.2261 32.6782L8.50049 21.6383L15.1953 13.3999ZM22.6088 30.7896L16.5363 32.3548L23.6775 32.8057L22.6088 30.7896ZM29.1346 26.3573L23.8189 30.2623L24.8752 32.2979L29.1346 26.3573ZM13.7203 24.615L13.8945 31.4855L20.9206 29.6852L13.7203 24.615ZM9.25549 22.4263L12.5688 30.1239L12.4309 23.0893L9.25549 22.4263ZM25.1868 19.2196L23.8917 28.6613L30.0934 24.1296L25.1868 19.2196ZM23.5597 19.3496L15.2695 22.9215L22.3571 28.3255L23.5597 19.3496ZM14.188 15.3888L9.46127 21.2746L12.6215 21.9347L14.188 15.3888ZM26.6203 15.4224L25.5878 17.5125L29.4308 21.3648L26.6203 15.4224ZM15.9747 14.7466L14.583 20.6614L22.5999 17.5598L15.9747 14.7466ZM18.5856 14.1521L24.1521 16.5531L25.3339 14.4222L18.5856 14.1521ZM138.431 15.2384L140.487 15L141.679 25.9064H141.739L144.332 18.2779H144.868L147.46 25.9064H147.52L148.742 15L150.768 15.2384L148.533 31.3H147.848L144.6 21.7346L141.352 31.3H140.666L138.431 15.2384ZM126.732 15.1189C129.205 15.1189 132.245 16.9069 132.245 23.1646C132.245 24.4162 132.155 31.1805 126.732 31.1805C124.229 31.1805 121.219 29.3926 121.219 23.1646C121.219 16.9665 124.169 15.1189 126.732 15.1189ZM126.732 16.9963C123.722 16.9963 123.305 20.8701 123.305 23.1646C123.305 25.4294 123.722 29.3032 126.732 29.3032C129.742 29.3032 130.159 25.4294 130.159 23.1646C130.159 20.8701 129.742 16.9963 126.732 16.9963ZM108.983 22.4795H106.361V17.1753H109.579C111.367 17.1753 112.202 18.2182 112.202 19.6188C112.202 21.3769 110.92 22.4795 108.983 22.4795ZM104.365 15.3873V30.9126H106.361V24.2674H109.252L113.215 31.2999L114.943 30.257L111.129 23.9694C113.006 23.4032 114.288 21.5259 114.288 19.6188C114.288 16.6091 112.232 15.3873 109.639 15.3873H104.365ZM94.9301 26.8001L96.569 27.9325C95.3174 29.8992 93.8275 31.1805 91.4138 31.1805C86.8844 31.1805 85.454 27.0087 85.454 23.1646C85.454 16.9665 88.7319 15.1189 91.235 15.1189C93.6487 15.1189 95.0492 16.3705 96.1518 18.4266L94.3341 19.3504C93.6785 18.0988 92.7845 16.9963 91.2648 16.9963C88.1657 16.9963 87.5399 20.7509 87.5399 23.1348C87.5399 25.5486 88.1061 29.3032 91.2648 29.3032C93.0825 29.3032 94.0063 28.2007 94.9301 26.8001ZM69.8808 25.9955L68.0929 26.5617C68.5697 29.333 70.3874 31.1805 73.2779 31.1805C76.1386 31.1805 78.1947 29.5118 78.1947 26.5617C78.1947 24.9526 77.4498 23.701 76.0492 22.9263L72.7415 21.4661C71.5496 20.9297 70.6556 20.5125 70.6556 19.0524C70.6556 17.6518 71.9072 16.9963 73.1885 16.9963C74.8871 16.9963 75.6916 18.069 76.0492 19.5888L77.9563 19.0226C77.3306 16.6089 75.8108 15.1189 73.2183 15.1189C70.7748 15.1189 68.6591 16.5791 68.6591 19.2014C68.6591 21.8648 70.4438 22.5948 72.4758 23.4261L72.4759 23.4261C72.6719 23.5063 72.8701 23.5874 73.0693 23.6712C73.1936 23.7224 73.3184 23.7726 73.4429 23.8226C74.8414 24.3845 76.1982 24.9297 76.1982 26.6809C76.1982 28.4093 74.9169 29.3032 73.2779 29.3032C71.192 29.3032 70.2682 27.9027 69.8808 25.9955ZM51 30.9126V15.3873H60.6846V17.1753H52.9965V21.8239H59.3437V23.6118H52.9965V29.1246H60.6846V30.9126H51Z" fill="white"/>
</svg>
