<svg width="119" height="48" viewBox="0 0 119 48" fill="none" xmlns="http://www.w3.org/2000/svg">
<path d="M57.5053 19.996H51.3374V22.6049H56.9231V24.3965H51.3374V27.2097H57.5053V29.0014H49.3706V18.2043H57.5053V19.996ZM63.39 29.1743C61.5333 29.1743 59.9599 28.5456 58.7641 27.4298L59.897 26.031C60.8882 26.9269 62.0368 27.4926 63.4529 27.4926C64.7904 27.4926 65.4827 26.8326 65.4827 26.0625C65.4827 25.1666 64.7117 24.868 62.9809 24.4594C60.7466 23.9408 59.1889 23.2964 59.1889 21.269C59.1889 19.383 60.7938 18 63.0753 18C64.7904 18 66.0806 18.5815 67.1663 19.5088L66.0963 20.9547C65.1523 20.1374 64.0666 19.6816 62.9966 19.6816C61.911 19.6816 61.1715 20.3417 61.1715 21.0961C61.1715 21.9762 61.9739 22.2905 63.689 22.6835C65.939 23.1864 67.4495 23.9093 67.4495 25.8739C67.4495 27.807 65.9705 29.1743 63.39 29.1743ZM74.5143 29.19C71.4303 29.19 68.8341 26.6282 68.8341 23.595C68.8341 20.5618 71.4303 18.0157 74.5143 18.0157C76.1035 18.0157 77.551 18.6915 78.5895 19.7602L77.1891 21.0647C76.5283 20.2946 75.5527 19.8074 74.5143 19.8074C72.516 19.8074 70.8324 21.5362 70.8324 23.595C70.8324 25.6695 72.516 27.3983 74.5143 27.3983C75.5685 27.3983 76.5283 26.9111 77.2049 26.141L78.5895 27.4298C77.551 28.5142 76.1035 29.19 74.5143 29.19ZM88.9428 29.0014H86.7085L84.1595 25.3709H82.0668V29.0014H80.1V18.2043H84.8046C87.1176 18.2043 88.8484 19.6816 88.8484 21.7876C88.8484 23.4221 87.7942 24.6794 86.2365 25.1666L88.9428 29.0014ZM82.0668 20.0117V23.5636H84.5843C85.9218 23.5636 86.8501 22.8878 86.8501 21.7876C86.8501 20.6875 85.9218 20.0117 84.5843 20.0117H82.0668ZM95.8974 29.19C92.8135 29.19 90.2173 26.6282 90.2173 23.595C90.2173 20.5618 92.8135 18.0157 95.8974 18.0157C98.9656 18.0157 101.562 20.5618 101.562 23.595C101.562 26.6282 98.9656 29.19 95.8974 29.19ZM95.8974 27.3983C97.88 27.3983 99.5478 25.6695 99.5478 23.595C99.5478 21.5362 97.88 19.8074 95.8974 19.8074C93.8991 19.8074 92.2155 21.5362 92.2155 23.595C92.2155 25.6695 93.8991 27.3983 95.8974 27.3983ZM105.716 29.0014L102.286 18.2043H104.441L106.754 25.9367L109.319 18.2043H111.459L114.008 25.9367L116.321 18.2043H118.476L115.062 29.0014H113.095L110.389 20.9861L107.667 29.0014H105.716Z" fill="white"/>
<path fill-rule="evenodd" clip-rule="evenodd" d="M0.000488281 12.2594L20.2154 0.601562L40.3705 12.2598V12.8368C40.3705 27.5633 33.7113 38.9581 20.5156 46.9331L20.0086 47.2395L19.4962 46.9422C6.54071 39.4252 0.0241578 28.013 0.00135798 12.8383L0.000488281 12.2594ZM39.3702 12.8368C39.3702 27.1918 32.9129 38.2718 19.9982 46.077C7.3561 38.7418 1.02392 27.6617 1.00164 12.8368L20.2147 1.7567L39.3702 12.8368Z" fill="white"/>
<path fill-rule="evenodd" clip-rule="evenodd" d="M20.0145 43.1102C31.1888 36.2667 36.7891 26.6477 36.8741 14.211L20.2131 4.57735L3.50183 14.2112C3.60189 27.0677 9.09732 36.6796 20.0145 43.1102ZM3.00049 13.9231C3.02044 27.2 8.69347 37.1231 20.0196 43.6923C31.5899 36.7022 37.375 26.7791 37.375 13.9231L20.2135 4L3.00049 13.9231Z" fill="white"/>
<path fill-rule="evenodd" clip-rule="evenodd" d="M15.1953 13L26.6599 13.5063L31.3014 23.6954L24.7531 33.0076L13.2261 32.2783L8.50049 21.2384L15.1953 13ZM22.6088 30.3897L16.5363 31.9549L23.6775 32.4058L22.6088 30.3897ZM29.1346 25.9574L23.8189 29.8624L24.8752 31.898L29.1346 25.9574ZM13.7203 24.2151L13.8945 31.0856L20.9206 29.2853L13.7203 24.2151ZM9.25549 22.0264L12.5688 29.724L12.4309 22.6894L9.25549 22.0264ZM25.1868 18.8197L23.8917 28.2614L30.0935 23.7297L25.1868 18.8197ZM23.5597 18.9497L15.2695 22.5216L22.3571 27.9256L23.5597 18.9497ZM14.188 14.9889L9.46127 20.8747L12.6215 21.5348L14.188 14.9889ZM26.6203 15.0225L25.5878 17.1126L29.4308 20.9649L26.6203 15.0225ZM15.9747 14.3467L14.583 20.2615L22.5999 17.1599L15.9747 14.3467ZM18.5856 13.7522L24.1521 16.1532L25.3339 14.0223L18.5856 13.7522Z" fill="white"/>
</svg>
