<svg viewBox="0 0 1440 207" fill="none" xmlns="http://www.w3.org/2000/svg">
<path d="M0 0H1440V57L720 207L0 57V0Z" fill="#2A1260"/>
<path d="M295.426 118.548C295.793 116.357 295.977 114.072 295.977 111.694L277.516 101.008L259.935 111.154L264.282 112.06L277.514 104.424L292.988 113.381C292.925 114.95 292.772 116.471 292.53 117.945L295.426 118.548Z" fill="#5A00D3" fill-opacity="0.6"/>
<path d="M385.648 137.345C392.534 130.542 395.977 121.992 395.977 111.694L377.516 101.008L359 111.694C359.013 120.071 361.113 127.208 365.3 133.105L369.833 134.05C364.905 128.546 362.307 121.69 361.989 113.384L377.514 104.424L392.988 113.381C392.609 122.8 389.016 130.496 382.11 136.608L385.648 137.345Z" fill="#5A00D3" fill-opacity="0.6"/>
<path d="M1075.15 133.012C1079.29 127.133 1081.37 120.027 1081.38 111.694L1062.86 101.008L1044.4 111.694C1044.4 121.959 1047.83 130.487 1054.67 137.279L1058.2 136.543C1051.34 130.442 1047.77 122.767 1047.39 113.381L1062.87 104.424L1078.39 113.384C1078.08 121.641 1075.51 128.465 1070.63 133.952L1075.15 133.012Z" fill="#5A00D3" fill-opacity="0.6"/>
<path d="M1180.35 111.096L1162.87 101.008L1144.4 111.694C1144.4 114.044 1144.58 116.303 1144.94 118.472L1147.84 117.868C1147.6 116.418 1147.46 114.923 1147.39 113.381L1162.87 104.424L1176 112.002L1180.35 111.096Z" fill="#5A00D3" fill-opacity="0.6"/>
<path fill-rule="evenodd" clip-rule="evenodd" d="M468.307 143.753C456.124 136.678 450.021 125.992 450 111.694L468.516 101.008L486.976 111.694C486.976 125.539 480.753 136.225 468.307 143.753ZM483.988 113.381L468.514 104.424L452.988 113.384C453.441 125.178 458.488 134.049 468.28 140.276C478.352 133.676 483.528 124.793 483.988 113.381Z" fill="#5A00D3" fill-opacity="0.6"/>
<path fill-rule="evenodd" clip-rule="evenodd" d="M990.381 111.694C990.359 125.992 984.257 136.678 972.073 143.753C959.627 136.225 953.404 125.539 953.404 111.694L971.865 101.008L990.381 111.694ZM971.867 104.424L956.393 113.381C956.852 124.793 962.029 133.676 972.101 140.276C981.892 134.049 986.94 125.178 987.392 113.384L971.867 104.424Z" fill="#5A00D3" fill-opacity="0.6"/>
<path fill-rule="evenodd" clip-rule="evenodd" d="M85.5661 54.0039C79.8656 50.6938 77.0103 45.6938 77.0002 39.0039L85.6637 34.0039L94.3013 39.0039C94.3013 45.4817 91.3896 50.4817 85.5661 54.0039ZM92.903 39.7934L85.6627 35.6022L78.3985 39.7946C78.6103 45.3132 80.9719 49.4637 85.5533 52.3772C90.266 49.2889 92.6879 45.1326 92.903 39.7934ZM170 39.0039C170.01 45.6938 172.865 50.6938 178.566 54.0039C184.389 50.4817 187.301 45.4817 187.301 39.0039L178.663 34.0039L170 39.0039ZM178.662 35.6022L185.903 39.7934C185.688 45.1326 183.266 49.2889 178.553 52.3772C173.972 49.4637 171.61 45.3132 171.398 39.7946L178.662 35.6022ZM276.566 54.0039C270.865 50.6938 268.01 45.6938 268 39.0039L276.663 34.0039L285.301 39.0039C285.301 45.4817 282.389 50.4817 276.566 54.0039ZM283.902 39.7934L276.662 35.6022L269.398 39.7946C269.61 45.3132 271.971 49.4637 276.553 52.3772C281.265 49.2889 283.687 45.1326 283.902 39.7934ZM368 39.0039C368.01 45.6938 370.865 50.6938 376.566 54.0039C382.389 50.4817 385.301 45.4817 385.301 39.0039L376.663 34.0039L368 39.0039ZM376.662 35.6022L383.902 39.7934C383.687 45.1326 381.265 49.2889 376.553 52.3772C371.971 49.4637 369.61 45.3132 369.398 39.7946L376.662 35.6022ZM459 39.0039C459.01 45.6938 461.865 50.6938 467.566 54.0039C473.389 50.4817 476.301 45.4817 476.301 39.0039L467.663 34.0039L459 39.0039ZM467.662 35.6022L474.903 39.7934C474.688 45.1326 472.266 49.2889 467.553 52.3772C462.972 49.4637 460.61 45.3132 460.398 39.7946L467.662 35.6022Z" fill="#9013FE" fill-opacity="0.6"/>
<path fill-rule="evenodd" clip-rule="evenodd" d="M132.241 83.0039C135.661 81.0179 137.375 78.0179 137.381 74.0039L132.183 71.0039L127 74.0039C127 77.8906 128.747 80.8906 132.241 83.0039ZM127.839 74.4776L132.183 71.9629L136.542 74.4783C136.415 77.7895 134.998 80.2798 132.249 82.0279C129.421 80.1749 127.968 77.6811 127.839 74.4776ZM230.381 74.0039C230.375 78.0179 228.662 81.0179 225.241 83.0039C221.747 80.8906 220 77.8906 220 74.0039L225.183 71.0039L230.381 74.0039ZM225.183 71.9629L220.839 74.4776C220.968 77.6811 222.421 80.1749 225.249 82.0279C227.998 80.2798 229.415 77.7895 229.542 74.4783L225.183 71.9629ZM323.241 83.0039C326.662 81.0179 328.375 78.0179 328.381 74.0039L323.183 71.0039L318 74.0039C318 77.8906 319.747 80.8906 323.241 83.0039ZM318.839 74.4776L323.183 71.9629L327.542 74.4783C327.415 77.7895 325.998 80.2798 323.249 82.0279C320.421 80.1749 318.968 77.6811 318.839 74.4776ZM428.381 74.0039C428.375 78.0179 426.661 81.0179 423.241 83.0039C419.747 80.8906 418 77.8906 418 74.0039L423.182 71.0039L428.381 74.0039ZM423.183 71.9629L418.839 74.4776C418.968 77.6811 420.421 80.1749 423.249 82.0279C425.998 80.2798 427.414 77.7895 427.542 74.4783L423.183 71.9629ZM519.381 74.0039C519.375 78.0179 517.662 81.0179 514.241 83.0039C510.747 80.8906 509 77.8906 509 74.0039L514.183 71.0039L519.381 74.0039ZM514.183 71.9629L509.839 74.4776C509.968 77.6811 511.421 80.1749 514.249 82.0279C516.998 80.2798 518.415 77.7895 518.542 74.4783L514.183 71.9629Z" fill="#F2E3FF"/>
<path fill-rule="evenodd" clip-rule="evenodd" d="M1354.81 54.0039C1360.52 50.6938 1363.37 45.6938 1363.38 39.0039L1354.72 34.0039L1346.08 39.0039C1346.08 45.4817 1348.99 50.4817 1354.81 54.0039ZM1347.48 39.7934L1354.72 35.6022L1361.98 39.7946C1361.77 45.3132 1359.41 49.4637 1354.83 52.3772C1350.11 49.2889 1347.69 45.1326 1347.48 39.7934ZM1270.38 39.0039C1270.37 45.6938 1267.52 50.6938 1261.81 54.0039C1255.99 50.4817 1253.08 45.4817 1253.08 39.0039L1261.72 34.0039L1270.38 39.0039ZM1261.72 35.6022L1254.48 39.7934C1254.69 45.1326 1257.11 49.2889 1261.83 52.3772C1266.41 49.4637 1268.77 45.3132 1268.98 39.7946L1261.72 35.6022ZM1163.81 54.0039C1169.52 50.6938 1172.37 45.6938 1172.38 39.0039L1163.72 34.0039L1155.08 39.0039C1155.08 45.4817 1157.99 50.4817 1163.81 54.0039ZM1156.48 39.7934L1163.72 35.6022L1170.98 39.7946C1170.77 45.3132 1168.41 49.4637 1163.83 52.3772C1159.11 49.2889 1156.69 45.1326 1156.48 39.7934ZM1072.38 39.0039C1072.37 45.6938 1069.52 50.6938 1063.81 54.0039C1057.99 50.4817 1055.08 45.4817 1055.08 39.0039L1063.72 34.0039L1072.38 39.0039ZM1063.72 35.6022L1056.48 39.7934C1056.69 45.1326 1059.11 49.2889 1063.83 52.3772C1068.41 49.4637 1070.77 45.3132 1070.98 39.7946L1063.72 35.6022ZM981.381 39.0039C981.371 45.6938 978.515 50.6938 972.815 54.0039C966.991 50.4817 964.08 45.4817 964.08 39.0039L972.717 34.0039L981.381 39.0039ZM972.718 35.6022L965.478 39.7934C965.693 45.1326 968.115 49.2889 972.828 52.3772C977.409 49.4637 979.771 45.3132 979.982 39.7946L972.718 35.6022Z" fill="#9013FE" fill-opacity="0.6"/>
<path fill-rule="evenodd" clip-rule="evenodd" d="M1308.14 83.0039C1304.72 81.0179 1303.01 78.0179 1303 74.0039L1308.2 71.0039L1313.38 74.0039C1313.38 77.8906 1311.63 80.8906 1308.14 83.0039ZM1312.54 74.4776L1308.2 71.9629L1303.84 74.4783C1303.97 77.7895 1305.38 80.2798 1308.13 82.0279C1310.96 80.1749 1312.41 77.6811 1312.54 74.4776ZM1210 74.0039C1210.01 78.0179 1211.72 81.0179 1215.14 83.0039C1218.63 80.8906 1220.38 77.8906 1220.38 74.0039L1215.2 71.0039L1210 74.0039ZM1215.2 71.9629L1219.54 74.4776C1219.41 77.6811 1217.96 80.1749 1215.13 82.0279C1212.38 80.2798 1210.97 77.7895 1210.84 74.4783L1215.2 71.9629ZM1117.14 83.0039C1113.72 81.0179 1112.01 78.0179 1112 74.0039L1117.2 71.0039L1122.38 74.0039C1122.38 77.8906 1120.63 80.8906 1117.14 83.0039ZM1121.54 74.4776L1117.2 71.9629L1112.84 74.4783C1112.97 77.7895 1114.38 80.2798 1117.13 82.0279C1119.96 80.1749 1121.41 77.6811 1121.54 74.4776ZM1012 74.0039C1012.01 78.0179 1013.72 81.0179 1017.14 83.0039C1020.63 80.8906 1022.38 77.8906 1022.38 74.0039L1017.2 71.0039L1012 74.0039ZM1017.2 71.9629L1021.54 74.4776C1021.41 77.6811 1019.96 80.1749 1017.13 82.0279C1014.38 80.2798 1012.97 77.7895 1012.84 74.4783L1017.2 71.9629ZM921 74.0039C921.006 78.0179 922.719 81.0179 926.139 83.0039C929.633 80.8906 931.38 77.8906 931.38 74.0039L926.198 71.0039L921 74.0039ZM926.197 71.9629L930.541 74.4776C930.412 77.6811 928.959 80.1749 926.132 82.0279C923.383 80.2798 921.966 77.7895 921.839 74.4783L926.197 71.9629Z" fill="#F2E3FF"/>
<path fill-rule="evenodd" clip-rule="evenodd" d="M735.18 61.5937L708.045 60.3936L692.199 79.9213L703.384 106.089L730.667 107.818L746.167 85.7451L735.18 61.5937ZM711.219 105.323L725.592 101.613L728.121 106.392L711.219 105.323ZM728.456 100.363L741.038 91.1067L730.956 105.188L728.456 100.363ZM704.966 103.262L704.554 86.9769L721.596 98.995L704.966 103.262ZM701.828 100.035L693.986 81.7891L701.502 83.3606L701.828 100.035ZM728.628 96.568L731.694 74.1882L743.307 85.8264L728.628 96.568ZM708.22 82.9627L727.842 74.4963L724.996 95.772L708.22 82.9627ZM694.473 79.0592L705.661 65.1078L701.953 80.6238L694.473 79.0592ZM732.643 70.1418L735.087 65.1876L741.739 79.2729L732.643 70.1418ZM706.595 77.6055L709.889 63.5858L725.571 70.2538L706.595 77.6055ZM729.245 67.8677L716.069 62.1765L732.042 62.8168L729.245 67.8677Z" fill="white"/>
<path fill-rule="evenodd" clip-rule="evenodd" d="M679.181 62.5802C679.228 94.0506 692.656 117.571 719.464 133.143C746.85 116.574 760.543 93.053 760.543 62.5802L719.923 39.0594L679.181 62.5802ZM719.452 131.763C745.9 115.542 759.156 92.7415 759.357 63.2626L719.922 40.4279L680.368 63.2632C680.604 93.7372 693.612 116.52 719.452 131.763Z" fill="white"/>
<path fill-rule="evenodd" clip-rule="evenodd" d="M672.08 58.6328L719.927 31L767.632 58.6337V60.0013C767.632 94.9077 751.871 121.917 720.637 140.82L719.437 141.546L718.225 140.842C687.56 123.024 672.136 95.9737 672.082 60.0048L672.08 58.6328ZM765.265 60.0013C765.265 94.0271 749.981 120.29 719.413 138.791C689.49 121.404 674.502 95.1411 674.45 60.0013L719.925 33.738L765.265 60.0013Z" fill="white"/>
</svg>
