<svg viewBox="0 0 390 151" fill="none" xmlns="http://www.w3.org/2000/svg">
<g clip-path="url(#clip0_17996_103513)">
<path d="M0 0H390V51.5V110.413L195.181 151L0 110.337V45V0Z" fill="#4D00B4"/>
<path d="M8.88168 112.188C12.7183 108.398 14.6366 103.633 14.6366 97.8957L4.35045 91.9414L0 94.4522L9.15527e-05 95L0.0238953 96.3411L4.34921 93.8448L12.9713 98.8358C12.76 104.084 10.7583 108.372 6.91023 111.777L8.88168 112.188Z" fill="#5A00D3"/>
<path d="M390 95V94.1208L386.224 91.9414L375.938 97.8957C375.938 103.615 377.844 108.367 381.656 112.152L383.624 111.742C379.802 108.342 377.814 104.065 377.603 98.8358L386.225 93.8448L389.986 96.0152L390 95Z" fill="#5A00D3"/>
<path fill-rule="evenodd" clip-rule="evenodd" d="M54.9389 115.759C48.1503 111.817 44.7501 105.862 44.7381 97.8957L55.0551 91.9414L65.3413 97.8957C65.3413 105.61 61.8738 111.564 54.9389 115.759ZM63.676 98.8358L55.0539 93.8448L46.4033 98.8373C46.6555 105.409 49.4678 110.352 54.9236 113.821C60.5357 110.144 63.42 105.194 63.676 98.8358Z" fill="#5A00D3"/>
<path fill-rule="evenodd" clip-rule="evenodd" d="M345.836 97.8957C345.824 105.862 342.424 111.817 335.635 115.759C328.7 111.564 325.233 105.61 325.233 97.8957L335.519 91.9414L345.836 97.8957ZM335.52 93.8448L326.898 98.8358C327.154 105.194 330.038 110.144 335.651 113.821C341.106 110.352 343.919 105.409 344.171 98.8373L335.52 93.8448Z" fill="#5A00D3"/>
<path fill-rule="evenodd" clip-rule="evenodd" d="M6.82072 65.7533C3.64441 63.9089 2.05345 61.1229 2.04785 57.3954L6.87511 54.6094L11.6879 57.3954C11.6879 61.0048 10.0655 63.7908 6.82072 65.7533ZM10.9088 57.8352L6.87454 55.4999L2.82696 57.8359C2.94498 60.9109 4.26082 63.2235 6.81355 64.8469C9.43945 63.1261 10.789 60.8102 10.9088 57.8352ZM57.5258 65.7533C54.3495 63.9089 52.7585 61.1229 52.7529 57.3954L57.5802 54.6094L62.393 57.3954C62.393 61.0048 60.7706 63.7908 57.5258 65.7533ZM61.6139 57.8352L57.5796 55.4999L53.532 57.8359C53.6501 60.9109 54.9659 63.2235 57.5186 64.8469C60.1445 63.1261 61.494 60.8102 61.6139 57.8352Z" fill="#9013FE"/>
<path fill-rule="evenodd" clip-rule="evenodd" d="M32.828 81.9129C34.7338 80.8063 35.6884 79.1347 35.6918 76.8981L32.7954 75.2266L29.9077 76.8981C29.9077 79.0638 30.8812 80.7354 32.828 81.9129ZM30.3752 77.1621L32.7957 75.7609L35.2243 77.1625C35.1535 79.0075 34.364 80.395 32.8323 81.3691C31.2568 80.3366 30.4471 78.9471 30.3752 77.1621ZM83.5331 81.9129C85.4389 80.8063 86.3935 79.1347 86.3968 76.8981L83.5005 75.2266L80.6128 76.8981C80.6128 79.0638 81.5862 80.7354 83.5331 81.9129ZM81.0803 77.1621L83.5008 75.7609L85.9294 77.1625C85.8586 79.0075 85.0691 80.395 83.5374 81.3691C81.9619 80.3366 81.1522 78.9471 81.0803 77.1621Z" fill="#F2E3FF"/>
<path fill-rule="evenodd" clip-rule="evenodd" d="M388.525 57.3954C388.52 61.1229 386.929 63.9089 383.753 65.7533C380.508 63.7908 378.885 61.0048 378.885 57.3954L383.698 54.6094L388.525 57.3954ZM383.699 55.4999L379.664 57.8352C379.784 60.8102 381.134 63.1261 383.76 64.8469C386.312 63.2235 387.628 60.9109 387.746 57.8359L383.699 55.4999ZM337.821 57.3954C337.815 61.1229 336.224 63.9089 333.048 65.7533C329.803 63.7908 328.181 61.0048 328.181 57.3954L332.993 54.6094L337.821 57.3954ZM332.994 55.4999L328.96 57.8352C329.08 60.8102 330.429 63.1261 333.055 64.8469C335.608 63.2235 336.924 60.9109 337.042 57.8359L332.994 55.4999Z" fill="#9013FE"/>
<path fill-rule="evenodd" clip-rule="evenodd" d="M357.745 81.9129C355.839 80.8063 354.885 79.1347 354.881 76.8981L357.778 75.2266L360.666 76.8981C360.666 79.0638 359.692 80.7354 357.745 81.9129ZM360.198 77.1621L357.777 75.7609L355.349 77.1625C355.42 79.0075 356.209 80.395 357.741 81.3691C359.316 80.3366 360.126 78.9471 360.198 77.1621ZM307.04 81.9129C305.135 80.8063 304.18 79.1347 304.177 76.8981L307.073 75.2266L309.961 76.8981C309.961 79.0638 308.987 80.7354 307.04 81.9129ZM309.493 77.1621L307.073 75.7609L304.644 77.1625C304.715 79.0075 305.504 80.395 307.036 81.3691C308.612 80.3366 309.421 78.9471 309.493 77.1621Z" fill="#F2E3FF"/>
<path fill-rule="evenodd" clip-rule="evenodd" d="M203.159 69.9802L188.039 69.3116L179.21 80.1923L185.442 94.7729L200.644 95.7361L209.281 83.4373L203.159 69.9802ZM189.808 94.3459L197.816 92.2787L199.226 94.9414L189.808 94.3459ZM199.412 91.5822L206.423 86.4248L200.805 94.2706L199.412 91.5822ZM186.324 93.1977L186.094 84.1237L195.59 90.8201L186.324 93.1977ZM184.575 91.3995L180.206 81.233L184.394 82.1087L184.575 91.3995ZM199.508 89.4678L201.216 76.9979L207.687 83.4826L199.508 89.4678ZM188.137 81.887L199.071 77.1695L197.485 89.0243L188.137 81.887ZM180.477 79.712L186.711 71.9383L184.645 80.5838L180.477 79.712ZM201.745 74.7432L203.107 71.9827L206.813 79.8311L201.745 74.7432ZM187.232 78.902L189.067 71.0903L197.805 74.8056L187.232 78.902ZM199.852 73.4761L192.511 70.305L201.41 70.6618L199.852 73.4761Z" fill="white"/>
<path fill-rule="evenodd" clip-rule="evenodd" d="M171.957 70.53C171.983 88.0651 179.465 101.171 194.402 109.847C209.661 100.615 217.291 87.5093 217.291 70.53L194.658 57.4243L171.957 70.53ZM194.395 109.078C209.132 100.04 216.518 87.3357 216.63 70.9102L194.657 58.1868L172.618 70.9105C172.75 87.8905 179.997 100.585 194.395 109.078Z" fill="white"/>
<path fill-rule="evenodd" clip-rule="evenodd" d="M168 68.3305L194.66 52.9336L221.241 68.3309V69.093C221.241 88.5427 212.459 103.592 195.056 114.125L194.387 114.53L193.712 114.137C176.625 104.209 168.031 89.1366 168.001 69.095L168 68.3305ZM219.922 69.093C219.922 88.052 211.406 102.686 194.374 112.994C177.701 103.306 169.35 88.6727 169.32 69.093L194.659 54.4592L219.922 69.093Z" fill="white"/>
</g>
<defs>
<clipPath id="clip0_17996_103513">
<rect width="390" height="151" fill="white"/>
</clipPath>
</defs>
</svg>
